<svg xmlns="http://www.w3.org/2000/svg" viewBox="0 0 24 24" fill="none" stroke="currentColor" stroke-width="1.6" stroke-linecap="round" stroke-linejoin="round"><rect x="0.9" y="6.6" width="1.5" height="10.8" rx="0.3" stroke-width="0.8"/><rect x="21.6" y="6.6" width="1.5" height="10.8" rx="0.3" stroke-width="0.8"/><circle cx="1.65" cy="7.6" r="0.3" fill="currentColor" stroke="none" fill-opacity="0.8"/><circle cx="22.35" cy="7.6" r="0.3" fill="currentColor" stroke="none" fill-opacity="0.8"/><circle cx="1.65" cy="16.4" r="0.3" fill="currentColor" stroke="none" fill-opacity="0.8"/><circle cx="22.35" cy="16.4" r="0.3" fill="currentColor" stroke="none" fill-opacity="0.8"/><rect x="2.4" y="6.6" width="19.2" height="10.8" rx="0.4" stroke-width="1.2"/><rect x="3.4" y="7.8" width="3.6" height="1.6" rx="0.15" stroke-width="0.5" fill="currentColor" fill-opacity="0.4"/><circle cx="9" cy="8.8" r="0.6" stroke-width="0.6"/><circle cx="9" cy="8.8" r="0.3" fill="currentColor" stroke="none"/><circle cx="10.5" cy="8.8" r="0.6" stroke-width="0.6"/><circle cx="10.5" cy="8.8" r="0.3" fill="currentColor" stroke="none"/><circle cx="12" cy="8.8" r="0.6" stroke-width="0.6"/><circle cx="12" cy="8.8" r="0.3" fill="currentColor" stroke="none"/><circle cx="13.5" cy="8.8" r="0.6" stroke-width="0.6"/><circle cx="13.5" cy="8.8" r="0.3" fill="currentColor" stroke="none"/><circle cx="15" cy="8.8" r="0.6" stroke-width="0.6"/><circle cx="15" cy="8.8" r="0.3" fill="currentColor" stroke="none"/><circle cx="16.5" cy="8.8" r="0.6" stroke-width="0.6"/><circle cx="16.5" cy="8.8" r="0.3" fill="currentColor" stroke="none"/><circle cx="18" cy="8.8" r="0.6" stroke-width="0.6"/><circle cx="18" cy="8.8" r="0.3" fill="currentColor" stroke="none"/><circle cx="19.5" cy="8.8" r="0.6" stroke-width="0.6"/><circle cx="19.5" cy="8.8" r="0.3" fill="currentColor" stroke="none"/><circle cx="9" cy="11.2" r="0.6" stroke-width="0.6"/><circle cx="9" cy="11.2" r="0.3" fill="currentColor" stroke="none"/><circle cx="10.5" cy="11.2" r="0.6" stroke-width="0.6"/><circle cx="10.5" cy="11.2" r="0.3" fill="currentColor" stroke="none"/><circle cx="12" cy="11.2" r="0.6" stroke-width="0.6"/><circle cx="12" cy="11.2" r="0.3" fill="currentColor" stroke="none"/><circle cx="13.5" cy="11.2" r="0.6" stroke-width="0.6"/><circle cx="13.5" cy="11.2" r="0.3" fill="currentColor" stroke="none"/><circle cx="15" cy="11.2" r="0.6" stroke-width="0.6"/><circle cx="15" cy="11.2" r="0.3" fill="currentColor" stroke="none"/><circle cx="16.5" cy="11.2" r="0.6" stroke-width="0.6"/><circle cx="16.5" cy="11.2" r="0.3" fill="currentColor" stroke="none"/><circle cx="18" cy="11.2" r="0.6" stroke-width="0.6"/><circle cx="18" cy="11.2" r="0.3" fill="currentColor" stroke="none"/><circle cx="19.5" cy="11.2" r="0.6" stroke-width="0.6"/><circle cx="19.5" cy="11.2" r="0.3" fill="currentColor" stroke="none"/><rect x="3.4" y="10.8" width="3.6" height="4.2" rx="0.3" stroke-width="0.5"/><circle cx="5.2" cy="12.9" r="0.75" stroke-width="0.6"/><rect x="4.75" y="12.55" width="0.9" height="0.7" rx="0.05" fill="currentColor" stroke="none" fill-opacity="0.8"/><path d="M9 13.8L20 13.8" stroke-width="0.35" stroke-opacity="0.6"/><path d="M9 14.6L20 14.6" stroke-width="0.35" stroke-opacity="0.6"/></svg>
