<svg xmlns="http://www.w3.org/2000/svg" viewBox="0 0 24 24" fill="none" stroke="currentColor" stroke-width="1.6" stroke-linecap="round" stroke-linejoin="round"><rect x="2" y="4.5" width="20" height="15" rx="1" stroke-width="1.2"/><rect x="4" y="5.4" width="6.8" height="4.4" rx="0.3" stroke-width="0.8" fill="currentColor" fill-opacity="0.35"/><circle cx="12.6" cy="5.6" r="0.42" stroke-width="0.5"/><circle cx="13.8" cy="5.6" r="0.42" stroke-width="0.5"/><circle cx="15" cy="5.6" r="0.42" stroke-width="0.5"/><circle cx="16.2" cy="5.6" r="0.42" stroke-width="0.5"/><circle cx="17.4" cy="5.6" r="0.42" stroke-width="0.5"/><circle cx="18.6" cy="5.6" r="0.42" stroke-width="0.5"/><circle cx="12.6" cy="6.8" r="0.42" stroke-width="0.5"/><circle cx="13.8" cy="6.8" r="0.42" stroke-width="0.5"/><circle cx="15" cy="6.8" r="0.42" stroke-width="0.5"/><circle cx="16.2" cy="6.8" r="0.42" stroke-width="0.5"/><circle cx="17.4" cy="6.8" r="0.42" stroke-width="0.5"/><circle cx="18.6" cy="6.8" r="0.42" stroke-width="0.5"/><path d="M3.4 11.4L3.4 17.8" stroke-width="0.45" stroke-opacity="0.55"/><rect x="2.98" y="14.48" width="0.84" height="0.8" rx="0.15" fill="currentColor" stroke="none"/><path d="M4.55 11.4L4.55 17.8" stroke-width="0.45" stroke-opacity="0.55"/><rect x="4.13" y="13.08" width="0.84" height="0.8" rx="0.15" fill="currentColor" stroke="none"/><path d="M5.7 11.4L5.7 17.8" stroke-width="0.45" stroke-opacity="0.55"/><rect x="5.28" y="15.6" width="0.84" height="0.8" rx="0.15" fill="currentColor" stroke="none"/><path d="M6.85 11.4L6.85 17.8" stroke-width="0.45" stroke-opacity="0.55"/><rect x="6.43" y="13.92" width="0.84" height="0.8" rx="0.15" fill="currentColor" stroke="none"/><path d="M8 11.4L8 17.8" stroke-width="0.45" stroke-opacity="0.55"/><rect x="7.58" y="12.52" width="0.84" height="0.8" rx="0.15" fill="currentColor" stroke="none"/><path d="M9.15 11.4L9.15 17.8" stroke-width="0.45" stroke-opacity="0.55"/><rect x="8.73" y="14.76" width="0.84" height="0.8" rx="0.15" fill="currentColor" stroke="none"/><path d="M10.3 11.4L10.3 17.8" stroke-width="0.45" stroke-opacity="0.55"/><rect x="9.88" y="13.64" width="0.84" height="0.8" rx="0.15" fill="currentColor" stroke="none"/><path d="M11.45 11.4L11.45 17.8" stroke-width="0.45" stroke-opacity="0.55"/><rect x="11.03" y="15.32" width="0.84" height="0.8" rx="0.15" fill="currentColor" stroke="none"/><path d="M12.6 11.4L12.6 17.8" stroke-width="0.45" stroke-opacity="0.55"/><rect x="12.18" y="12.8" width="0.84" height="0.8" rx="0.15" fill="currentColor" stroke="none"/><path d="M13.75 11.4L13.75 17.8" stroke-width="0.45" stroke-opacity="0.55"/><rect x="13.33" y="14.2" width="0.84" height="0.8" rx="0.15" fill="currentColor" stroke="none"/><path d="M14.9 11.4L14.9 17.8" stroke-width="0.45" stroke-opacity="0.55"/><rect x="14.48" y="15.04" width="0.84" height="0.8" rx="0.15" fill="currentColor" stroke="none"/><path d="M16.05 11.4L16.05 17.8" stroke-width="0.45" stroke-opacity="0.55"/><rect x="15.63" y="13.36" width="0.84" height="0.8" rx="0.15" fill="currentColor" stroke="none"/><rect x="18" y="11.6" width="0.6" height="0.6" rx="0.1" fill="currentColor" stroke="none" fill-opacity="0.7"/><rect x="19.2" y="11.6" width="0.6" height="0.6" rx="0.1" fill="currentColor" stroke="none" fill-opacity="0.7"/><rect x="18" y="13.1" width="0.6" height="0.6" rx="0.1" fill="currentColor" stroke="none" fill-opacity="0.7"/><rect x="19.2" y="13.1" width="0.6" height="0.6" rx="0.1" fill="currentColor" stroke="none" fill-opacity="0.7"/><rect x="18" y="14.6" width="0.6" height="0.6" rx="0.1" fill="currentColor" stroke="none" fill-opacity="0.7"/><rect x="19.2" y="14.6" width="0.6" height="0.6" rx="0.1" fill="currentColor" stroke="none" fill-opacity="0.7"/><rect x="18" y="16.1" width="0.6" height="0.6" rx="0.1" fill="currentColor" stroke="none" fill-opacity="0.7"/><rect x="19.2" y="16.1" width="0.6" height="0.6" rx="0.1" fill="currentColor" stroke="none" fill-opacity="0.7"/></svg>
