<svg xmlns="http://www.w3.org/2000/svg" viewBox="0 0 24 24" fill="none" stroke="currentColor" stroke-width="1.6" stroke-linecap="round" stroke-linejoin="round"><rect x="1" y="4" width="22" height="16" rx="1" stroke-width="1.2"/><rect x="2" y="4.6" width="8.8" height="5.2" rx="0.3" stroke-width="0.8" fill="currentColor" fill-opacity="0.35"/><rect x="13.2" y="4.6" width="8.8" height="5.2" rx="0.3" stroke-width="0.8" fill="currentColor" fill-opacity="0.35"/><circle cx="12" cy="7.2" r="0.8" stroke-width="0.7" fill="currentColor" fill-opacity="0.5"/><circle cx="12" cy="7.2" r="1.25" stroke-width="0.4"/><path d="M2.4 11.6L2.4 18" stroke-width="0.45" stroke-opacity="0.55"/><rect x="1.98" y="14.68" width="0.84" height="0.8" rx="0.15" fill="currentColor" stroke="none"/><path d="M3.67 11.6L3.67 18" stroke-width="0.45" stroke-opacity="0.55"/><rect x="3.25" y="13.28" width="0.84" height="0.8" rx="0.15" fill="currentColor" stroke="none"/><path d="M4.94 11.6L4.94 18" stroke-width="0.45" stroke-opacity="0.55"/><rect x="4.52" y="15.8" width="0.84" height="0.8" rx="0.15" fill="currentColor" stroke="none"/><path d="M6.21 11.6L6.21 18" stroke-width="0.45" stroke-opacity="0.55"/><rect x="5.79" y="14.12" width="0.84" height="0.8" rx="0.15" fill="currentColor" stroke="none"/><path d="M7.48 11.6L7.48 18" stroke-width="0.45" stroke-opacity="0.55"/><rect x="7.06" y="12.72" width="0.84" height="0.8" rx="0.15" fill="currentColor" stroke="none"/><path d="M8.75 11.6L8.75 18" stroke-width="0.45" stroke-opacity="0.55"/><rect x="8.33" y="14.96" width="0.84" height="0.8" rx="0.15" fill="currentColor" stroke="none"/><path d="M10.02 11.6L10.02 18" stroke-width="0.45" stroke-opacity="0.55"/><rect x="9.6" y="13.84" width="0.84" height="0.8" rx="0.15" fill="currentColor" stroke="none"/><path d="M11.29 11.6L11.29 18" stroke-width="0.45" stroke-opacity="0.55"/><rect x="10.87" y="15.52" width="0.84" height="0.8" rx="0.15" fill="currentColor" stroke="none"/><path d="M12.56 11.6L12.56 18" stroke-width="0.45" stroke-opacity="0.55"/><rect x="12.14" y="13" width="0.84" height="0.8" rx="0.15" fill="currentColor" stroke="none"/><path d="M13.83 11.6L13.83 18" stroke-width="0.45" stroke-opacity="0.55"/><rect x="13.41" y="14.4" width="0.84" height="0.8" rx="0.15" fill="currentColor" stroke="none"/><path d="M15.1 11.6L15.1 18" stroke-width="0.45" stroke-opacity="0.55"/><rect x="14.68" y="15.24" width="0.84" height="0.8" rx="0.15" fill="currentColor" stroke="none"/><path d="M16.37 11.6L16.37 18" stroke-width="0.45" stroke-opacity="0.55"/><rect x="15.95" y="13.56" width="0.84" height="0.8" rx="0.15" fill="currentColor" stroke="none"/><path d="M17.64 11.6L17.64 18" stroke-width="0.45" stroke-opacity="0.55"/><rect x="17.22" y="16.08" width="0.84" height="0.8" rx="0.15" fill="currentColor" stroke="none"/><path d="M18.91 11.6L18.91 18" stroke-width="0.45" stroke-opacity="0.55"/><rect x="18.49" y="14.12" width="0.84" height="0.8" rx="0.15" fill="currentColor" stroke="none"/><path d="M20.18 11.6L20.18 18" stroke-width="0.45" stroke-opacity="0.55"/><rect x="19.76" y="13.28" width="0.84" height="0.8" rx="0.15" fill="currentColor" stroke="none"/></svg>
