<svg xmlns="http://www.w3.org/2000/svg" viewBox="0 0 24 24" fill="none" stroke="currentColor" stroke-width="1.6" stroke-linecap="round" stroke-linejoin="round"><rect x="3.5" y="8.5" width="17" height="7" rx="0.8" stroke-width="1.2"/><circle cx="5" cy="10.2" r="0.3" fill="currentColor" stroke="none"/><circle cx="5" cy="11.6" r="0.3" fill="currentColor" stroke="none" fill-opacity="0.5"/><rect x="6.8" y="11.6" width="1" height="0.9" rx="0.1" stroke-width="0.5"/><rect x="8.1" y="11.6" width="1" height="0.9" rx="0.1" stroke-width="0.5"/><rect x="9.4" y="11.6" width="1" height="0.9" rx="0.1" stroke-width="0.5"/><rect x="10.7" y="11.6" width="1" height="0.9" rx="0.1" stroke-width="0.5"/><rect x="12" y="11.6" width="1" height="0.9" rx="0.1" stroke-width="0.5"/><rect x="13.3" y="11.6" width="1" height="0.9" rx="0.1" stroke-width="0.5"/><rect x="14.6" y="11.6" width="1" height="0.9" rx="0.1" stroke-width="0.5"/><rect x="15.9" y="11.6" width="1" height="0.9" rx="0.1" stroke-width="0.5"/><rect x="17.6" y="10.4" width="1.6" height="0.8" rx="0.1" fill="currentColor" stroke="none" fill-opacity="0.55"/><rect x="17.6" y="12.4" width="1.6" height="0.8" rx="0.1" fill="currentColor" stroke="none" fill-opacity="0.55"/><path d="M5 13.8L7.4 13.8" stroke-width="0.5" stroke-opacity="0.6"/></svg>
