<svg xmlns="http://www.w3.org/2000/svg" viewBox="0 0 24 24" fill="none" stroke="currentColor" stroke-width="1.6" stroke-linecap="round" stroke-linejoin="round"><rect x="0.9" y="7.6" width="1.5" height="8.8" rx="0.3" stroke-width="0.8"/><rect x="21.6" y="7.6" width="1.5" height="8.8" rx="0.3" stroke-width="0.8"/><circle cx="1.65" cy="8.6" r="0.3" fill="currentColor" stroke="none" fill-opacity="0.8"/><circle cx="22.35" cy="8.6" r="0.3" fill="currentColor" stroke="none" fill-opacity="0.8"/><circle cx="1.65" cy="15.4" r="0.3" fill="currentColor" stroke="none" fill-opacity="0.8"/><circle cx="22.35" cy="15.4" r="0.3" fill="currentColor" stroke="none" fill-opacity="0.8"/><rect x="2.4" y="7.6" width="19.2" height="8.8" rx="0.4" stroke-width="1.2"/><rect x="3.4" y="8.6" width="3.4" height="1.5" rx="0.15" stroke-width="0.5" fill="currentColor" fill-opacity="0.4"/><circle cx="4.3" cy="13.6" r="0.8" stroke-width="0.6"/><circle cx="4.3" cy="13.6" r="0.25" fill="currentColor" stroke="none"/><circle cx="8.8" cy="10.2" r="0.85" stroke-width="0.6"/><circle cx="8.8" cy="10.2" r="0.3" fill="currentColor" stroke="none"/><circle cx="8.8" cy="13.8" r="0.85" stroke-width="0.6"/><circle cx="8.8" cy="13.8" r="0.3" fill="currentColor" stroke="none"/><circle cx="11" cy="10.2" r="0.85" stroke-width="0.6"/><circle cx="11" cy="10.2" r="0.3" fill="currentColor" stroke="none"/><circle cx="11" cy="13.8" r="0.85" stroke-width="0.6"/><circle cx="11" cy="13.8" r="0.3" fill="currentColor" stroke="none"/><circle cx="13.2" cy="10.2" r="0.85" stroke-width="0.6"/><circle cx="13.2" cy="10.2" r="0.3" fill="currentColor" stroke="none"/><circle cx="13.2" cy="13.8" r="0.85" stroke-width="0.6"/><circle cx="13.2" cy="13.8" r="0.3" fill="currentColor" stroke="none"/><circle cx="15.4" cy="10.2" r="0.85" stroke-width="0.6"/><circle cx="15.4" cy="10.2" r="0.3" fill="currentColor" stroke="none"/><circle cx="15.4" cy="13.8" r="0.85" stroke-width="0.6"/><circle cx="15.4" cy="13.8" r="0.3" fill="currentColor" stroke="none"/><circle cx="17.6" cy="10.2" r="0.85" stroke-width="0.6"/><circle cx="17.6" cy="10.2" r="0.3" fill="currentColor" stroke="none"/><circle cx="17.6" cy="13.8" r="0.85" stroke-width="0.6"/><circle cx="17.6" cy="13.8" r="0.3" fill="currentColor" stroke="none"/><circle cx="19.8" cy="10.2" r="0.85" stroke-width="0.6"/><circle cx="19.8" cy="10.2" r="0.3" fill="currentColor" stroke="none"/><circle cx="19.8" cy="13.8" r="0.85" stroke-width="0.6"/><circle cx="19.8" cy="13.8" r="0.3" fill="currentColor" stroke="none"/></svg>
