<svg xmlns="http://www.w3.org/2000/svg" viewBox="0 0 24 24" fill="none" stroke="currentColor" stroke-width="1.6" stroke-linecap="round" stroke-linejoin="round"><rect x="3.5" y="6.5" width="17" height="11" rx="1" stroke-width="1.2"/><rect x="5" y="8" width="4.4" height="1.8" rx="0.15" stroke-width="0.5" fill="currentColor" fill-opacity="0.4"/><rect x="5" y="10.8" width="0.7" height="0.7" rx="0.1" fill="currentColor" stroke="none" fill-opacity="0.7"/><rect x="6.2" y="10.8" width="0.7" height="0.7" rx="0.1" fill="currentColor" stroke="none" fill-opacity="0.7"/><rect x="7.4" y="10.8" width="0.7" height="0.7" rx="0.1" fill="currentColor" stroke="none" fill-opacity="0.7"/><rect x="8.6" y="10.8" width="0.7" height="0.7" rx="0.1" fill="currentColor" stroke="none" fill-opacity="0.7"/><circle cx="12.6" cy="13.4" r="1.5" stroke-width="0.6"/><circle cx="12.6" cy="13.4" r="0.3" fill="currentColor" stroke="none"/><circle cx="16.8" cy="13.4" r="1.5" stroke-width="0.6"/><circle cx="16.8" cy="13.4" r="0.3" fill="currentColor" stroke="none"/><circle cx="6.2" cy="14.6" r="1.05" stroke-width="0.6"/><rect x="5.75" y="14.25" width="0.9" height="0.7" rx="0.05" fill="currentColor" stroke="none" fill-opacity="0.8"/><path d="M17.4 8.2Q17.7 7.7 18.3 7.7Q19.2 7.7 19.2 8.5Q19.2 9.1 17.4 10.5H19.2" stroke-width="0.75"/></svg>
