<svg xmlns="http://www.w3.org/2000/svg" viewBox="0 0 24 24" fill="none" stroke="currentColor" stroke-width="1.6" stroke-linecap="round" stroke-linejoin="round"><rect x="0.9" y="7.6" width="1.5" height="8.8" rx="0.3" stroke-width="0.8"/><rect x="21.6" y="7.6" width="1.5" height="8.8" rx="0.3" stroke-width="0.8"/><circle cx="1.65" cy="8.6" r="0.3" fill="currentColor" stroke="none" fill-opacity="0.8"/><circle cx="22.35" cy="8.6" r="0.3" fill="currentColor" stroke="none" fill-opacity="0.8"/><circle cx="1.65" cy="15.4" r="0.3" fill="currentColor" stroke="none" fill-opacity="0.8"/><circle cx="22.35" cy="15.4" r="0.3" fill="currentColor" stroke="none" fill-opacity="0.8"/><rect x="2.4" y="7.6" width="19.2" height="8.8" rx="0.4" stroke-width="1.2"/><rect x="3.4" y="8.6" width="3.6" height="1.6" rx="0.15" stroke-width="0.5" fill="currentColor" fill-opacity="0.4"/><rect x="3.5" y="14.6" width="0.7" height="0.7" rx="0.1" fill="currentColor" stroke="none" fill-opacity="0.7"/><rect x="4.7" y="14.6" width="0.7" height="0.7" rx="0.1" fill="currentColor" stroke="none" fill-opacity="0.7"/><rect x="5.9" y="14.6" width="0.7" height="0.7" rx="0.1" fill="currentColor" stroke="none" fill-opacity="0.7"/><circle cx="8.2" cy="9.7" r="0.9" stroke-width="0.6"/><circle cx="8.2" cy="9.7" r="0.3" fill="currentColor" stroke="none"/><circle cx="8.2" cy="14.3" r="0.9" stroke-width="0.6"/><circle cx="8.2" cy="14.3" r="0.3" fill="currentColor" stroke="none"/><circle cx="10.4" cy="9.7" r="0.9" stroke-width="0.6"/><circle cx="10.4" cy="9.7" r="0.3" fill="currentColor" stroke="none"/><circle cx="10.4" cy="14.3" r="0.9" stroke-width="0.6"/><circle cx="10.4" cy="14.3" r="0.3" fill="currentColor" stroke="none"/><circle cx="12.6" cy="9.7" r="0.9" stroke-width="0.6"/><circle cx="12.6" cy="9.7" r="0.3" fill="currentColor" stroke="none"/><circle cx="12.6" cy="14.3" r="0.9" stroke-width="0.6"/><circle cx="12.6" cy="14.3" r="0.3" fill="currentColor" stroke="none"/><circle cx="14.8" cy="9.7" r="0.9" stroke-width="0.6"/><circle cx="14.8" cy="9.7" r="0.3" fill="currentColor" stroke="none"/><circle cx="14.8" cy="14.3" r="0.9" stroke-width="0.6"/><circle cx="14.8" cy="14.3" r="0.3" fill="currentColor" stroke="none"/><path d="M18.6 10.6H20.4L19.3 11.9Q20.4 12 20.4 12.6Q20.4 13.4 19.5 13.4Q18.8 13.4 18.6 12.9" stroke-width="0.75"/></svg>
