<svg xmlns="http://www.w3.org/2000/svg" viewBox="0 0 24 24" fill="none" stroke="currentColor" stroke-width="1.6" stroke-linecap="round" stroke-linejoin="round"><rect x="2" y="5" width="20" height="14" rx="1.1" stroke-width="1.2"/><rect x="3" y="6" width="6.6" height="3.8" rx="0.3" stroke-width="0.8" fill="currentColor" fill-opacity="0.35"/><circle cx="3.8" cy="11.4" r="0.55" stroke-width="0.6"/><circle cx="5.4" cy="11.4" r="0.55" stroke-width="0.6"/><circle cx="7" cy="11.4" r="0.55" stroke-width="0.6"/><circle cx="8.6" cy="11.4" r="0.55" stroke-width="0.6"/><path d="M3.4 13.4L3.4 17.8" stroke-width="0.45" stroke-opacity="0.55"/><rect x="2.98" y="15.38" width="0.84" height="0.8" rx="0.15" fill="currentColor" stroke="none"/><path d="M4.8 13.4L4.8 17.8" stroke-width="0.45" stroke-opacity="0.55"/><rect x="4.38" y="14.48" width="0.84" height="0.8" rx="0.15" fill="currentColor" stroke="none"/><path d="M6.2 13.4L6.2 17.8" stroke-width="0.45" stroke-opacity="0.55"/><rect x="5.78" y="16.1" width="0.84" height="0.8" rx="0.15" fill="currentColor" stroke="none"/><path d="M7.6 13.4L7.6 17.8" stroke-width="0.45" stroke-opacity="0.55"/><rect x="7.18" y="15.02" width="0.84" height="0.8" rx="0.15" fill="currentColor" stroke="none"/><path d="M9 13.4L9 17.8" stroke-width="0.45" stroke-opacity="0.55"/><rect x="8.58" y="14.12" width="0.84" height="0.8" rx="0.15" fill="currentColor" stroke="none"/><rect x="11.4" y="6.2" width="0.6" height="0.6" rx="0.1" fill="currentColor" stroke="none" fill-opacity="0.7"/><rect x="12.7" y="6.2" width="0.6" height="0.6" rx="0.1" fill="currentColor" stroke="none" fill-opacity="0.7"/><rect x="14" y="6.2" width="0.6" height="0.6" rx="0.1" fill="currentColor" stroke="none" fill-opacity="0.7"/><rect x="15.3" y="6.2" width="0.6" height="0.6" rx="0.1" fill="currentColor" stroke="none" fill-opacity="0.7"/><rect x="16.6" y="6.2" width="0.6" height="0.6" rx="0.1" fill="currentColor" stroke="none" fill-opacity="0.7"/><rect x="17.9" y="6.2" width="0.6" height="0.6" rx="0.1" fill="currentColor" stroke="none" fill-opacity="0.7"/><rect x="19.2" y="6.2" width="0.6" height="0.6" rx="0.1" fill="currentColor" stroke="none" fill-opacity="0.7"/><rect x="11.4" y="7.45" width="0.6" height="0.6" rx="0.1" fill="currentColor" stroke="none" fill-opacity="0.7"/><rect x="12.7" y="7.45" width="0.6" height="0.6" rx="0.1" fill="currentColor" stroke="none" fill-opacity="0.7"/><rect x="14" y="7.45" width="0.6" height="0.6" rx="0.1" fill="currentColor" stroke="none" fill-opacity="0.7"/><rect x="15.3" y="7.45" width="0.6" height="0.6" rx="0.1" fill="currentColor" stroke="none" fill-opacity="0.7"/><rect x="16.6" y="7.45" width="0.6" height="0.6" rx="0.1" fill="currentColor" stroke="none" fill-opacity="0.7"/><rect x="17.9" y="7.45" width="0.6" height="0.6" rx="0.1" fill="currentColor" stroke="none" fill-opacity="0.7"/><rect x="19.2" y="7.45" width="0.6" height="0.6" rx="0.1" fill="currentColor" stroke="none" fill-opacity="0.7"/><rect x="11.4" y="8.7" width="0.6" height="0.6" rx="0.1" fill="currentColor" stroke="none" fill-opacity="0.7"/><rect x="12.7" y="8.7" width="0.6" height="0.6" rx="0.1" fill="currentColor" stroke="none" fill-opacity="0.7"/><rect x="14" y="8.7" width="0.6" height="0.6" rx="0.1" fill="currentColor" stroke="none" fill-opacity="0.7"/><rect x="15.3" y="8.7" width="0.6" height="0.6" rx="0.1" fill="currentColor" stroke="none" fill-opacity="0.7"/><rect x="16.6" y="8.7" width="0.6" height="0.6" rx="0.1" fill="currentColor" stroke="none" fill-opacity="0.7"/><rect x="17.9" y="8.7" width="0.6" height="0.6" rx="0.1" fill="currentColor" stroke="none" fill-opacity="0.7"/><rect x="19.2" y="8.7" width="0.6" height="0.6" rx="0.1" fill="currentColor" stroke="none" fill-opacity="0.7"/><rect x="11.4" y="9.95" width="0.6" height="0.6" rx="0.1" fill="currentColor" stroke="none" fill-opacity="0.7"/><rect x="12.7" y="9.95" width="0.6" height="0.6" rx="0.1" fill="currentColor" stroke="none" fill-opacity="0.7"/><rect x="14" y="9.95" width="0.6" height="0.6" rx="0.1" fill="currentColor" stroke="none" fill-opacity="0.7"/><rect x="15.3" y="9.95" width="0.6" height="0.6" rx="0.1" fill="currentColor" stroke="none" fill-opacity="0.7"/><rect x="16.6" y="9.95" width="0.6" height="0.6" rx="0.1" fill="currentColor" stroke="none" fill-opacity="0.7"/><rect x="17.9" y="9.95" width="0.6" height="0.6" rx="0.1" fill="currentColor" stroke="none" fill-opacity="0.7"/><rect x="19.2" y="9.95" width="0.6" height="0.6" rx="0.1" fill="currentColor" stroke="none" fill-opacity="0.7"/><rect x="11.4" y="11.2" width="0.6" height="0.6" rx="0.1" fill="currentColor" stroke="none" fill-opacity="0.7"/><rect x="12.7" y="11.2" width="0.6" height="0.6" rx="0.1" fill="currentColor" stroke="none" fill-opacity="0.7"/><rect x="14" y="11.2" width="0.6" height="0.6" rx="0.1" fill="currentColor" stroke="none" fill-opacity="0.7"/><rect x="15.3" y="11.2" width="0.6" height="0.6" rx="0.1" fill="currentColor" stroke="none" fill-opacity="0.7"/><rect x="16.6" y="11.2" width="0.6" height="0.6" rx="0.1" fill="currentColor" stroke="none" fill-opacity="0.7"/><rect x="17.9" y="11.2" width="0.6" height="0.6" rx="0.1" fill="currentColor" stroke="none" fill-opacity="0.7"/><rect x="19.2" y="11.2" width="0.6" height="0.6" rx="0.1" fill="currentColor" stroke="none" fill-opacity="0.7"/><path d="M18.9 15.3H20.7L19.6 16.6Q20.7 16.7 20.7 17.3Q20.7 18.1 19.8 18.1Q19.1 18.1 18.9 17.6" stroke-width="0.75"/></svg>
