<svg xmlns="http://www.w3.org/2000/svg" viewBox="0 0 24 24" fill="none" stroke="currentColor" stroke-width="1.6" stroke-linecap="round" stroke-linejoin="round"><rect x="0.9" y="8.6" width="1.5" height="6.8" rx="0.3" stroke-width="0.8"/><rect x="21.6" y="8.6" width="1.5" height="6.8" rx="0.3" stroke-width="0.8"/><circle cx="1.65" cy="9.6" r="0.3" fill="currentColor" stroke="none" fill-opacity="0.8"/><circle cx="22.35" cy="9.6" r="0.3" fill="currentColor" stroke="none" fill-opacity="0.8"/><rect x="2.4" y="8.6" width="19.2" height="6.8" rx="0.4" stroke-width="1.2"/><circle cx="4" cy="12" r="1.1" stroke-width="0.6"/><path d="M3.5 12L4.5 12" stroke-width="0.5"/><circle cx="7.2" cy="12" r="1.05" stroke-width="0.6"/><rect x="6.75" y="11.65" width="0.9" height="0.7" rx="0.05" fill="currentColor" stroke="none" fill-opacity="0.8"/><rect x="9.6" y="10.8" width="2.3" height="2.4" rx="0.3" stroke-width="0.6"/><rect x="10.05" y="11.6" width="0.3" height="0.3" rx="0.1" fill="currentColor" stroke="none" fill-opacity="0.9"/><rect x="10.6" y="11.6" width="0.3" height="0.3" rx="0.1" fill="currentColor" stroke="none" fill-opacity="0.9"/><rect x="11.15" y="11.6" width="0.3" height="0.3" rx="0.1" fill="currentColor" stroke="none" fill-opacity="0.9"/><rect x="12.6" y="10.8" width="2.3" height="2.4" rx="0.3" stroke-width="0.6"/><rect x="13.05" y="11.6" width="0.3" height="0.3" rx="0.1" fill="currentColor" stroke="none" fill-opacity="0.9"/><rect x="13.6" y="11.6" width="0.3" height="0.3" rx="0.1" fill="currentColor" stroke="none" fill-opacity="0.9"/><rect x="14.15" y="11.6" width="0.3" height="0.3" rx="0.1" fill="currentColor" stroke="none" fill-opacity="0.9"/><rect x="15.6" y="10.8" width="2.3" height="2.4" rx="0.3" stroke-width="0.6"/><rect x="16.05" y="11.6" width="0.3" height="0.3" rx="0.1" fill="currentColor" stroke="none" fill-opacity="0.9"/><rect x="16.6" y="11.6" width="0.3" height="0.3" rx="0.1" fill="currentColor" stroke="none" fill-opacity="0.9"/><rect x="17.15" y="11.6" width="0.3" height="0.3" rx="0.1" fill="currentColor" stroke="none" fill-opacity="0.9"/><rect x="18.6" y="10.8" width="2.3" height="2.4" rx="0.3" stroke-width="0.6"/><rect x="19.05" y="11.6" width="0.3" height="0.3" rx="0.1" fill="currentColor" stroke="none" fill-opacity="0.9"/><rect x="19.6" y="11.6" width="0.3" height="0.3" rx="0.1" fill="currentColor" stroke="none" fill-opacity="0.9"/><rect x="20.15" y="11.6" width="0.3" height="0.3" rx="0.1" fill="currentColor" stroke="none" fill-opacity="0.9"/></svg>
