<svg xmlns="http://www.w3.org/2000/svg" viewBox="0 0 24 24" fill="none" stroke="currentColor" stroke-width="1.6" stroke-linecap="round" stroke-linejoin="round"><rect x="3.5" y="4.5" width="17" height="15" rx="0.8" stroke-width="1.2"/><rect x="11.2" y="5.5" width="8.2" height="5.6" rx="0.3" stroke-width="0.8" fill="currentColor" fill-opacity="0.35"/><circle cx="4.8" cy="5.8" r="0.42" stroke-width="0.5"/><circle cx="6.3" cy="5.8" r="0.42" stroke-width="0.5"/><circle cx="7.8" cy="5.8" r="0.42" stroke-width="0.5"/><circle cx="9.3" cy="5.8" r="0.42" stroke-width="0.5"/><circle cx="4.8" cy="7.3" r="0.42" stroke-width="0.5"/><circle cx="6.3" cy="7.3" r="0.42" stroke-width="0.5"/><circle cx="7.8" cy="7.3" r="0.42" stroke-width="0.5"/><circle cx="9.3" cy="7.3" r="0.42" stroke-width="0.5"/><path d="M4.8 10L4.8 18.4" stroke-width="0.45" stroke-opacity="0.55"/><rect x="4.38" y="14.18" width="0.84" height="0.8" rx="0.15" fill="currentColor" stroke="none"/><path d="M5.75 10L5.75 18.4" stroke-width="0.45" stroke-opacity="0.55"/><rect x="5.33" y="12.28" width="0.84" height="0.8" rx="0.15" fill="currentColor" stroke="none"/><path d="M6.7 10L6.7 18.4" stroke-width="0.45" stroke-opacity="0.55"/><rect x="6.28" y="15.7" width="0.84" height="0.8" rx="0.15" fill="currentColor" stroke="none"/><path d="M7.65 10L7.65 18.4" stroke-width="0.45" stroke-opacity="0.55"/><rect x="7.23" y="13.42" width="0.84" height="0.8" rx="0.15" fill="currentColor" stroke="none"/><path d="M8.6 10L8.6 18.4" stroke-width="0.45" stroke-opacity="0.55"/><rect x="8.18" y="11.52" width="0.84" height="0.8" rx="0.15" fill="currentColor" stroke="none"/><path d="M9.55 10L9.55 18.4" stroke-width="0.45" stroke-opacity="0.55"/><rect x="9.13" y="14.56" width="0.84" height="0.8" rx="0.15" fill="currentColor" stroke="none"/><path d="M10.5 10L10.5 18.4" stroke-width="0.45" stroke-opacity="0.55"/><rect x="10.08" y="13.04" width="0.84" height="0.8" rx="0.15" fill="currentColor" stroke="none"/><path d="M11.45 10L11.45 18.4" stroke-width="0.45" stroke-opacity="0.55"/><rect x="11.03" y="15.32" width="0.84" height="0.8" rx="0.15" fill="currentColor" stroke="none"/><path d="M12.4 10L12.4 18.4" stroke-width="0.45" stroke-opacity="0.55"/><rect x="11.98" y="11.9" width="0.84" height="0.8" rx="0.15" fill="currentColor" stroke="none"/><rect x="11.4" y="12.6" width="0.6" height="0.6" rx="0.1" fill="currentColor" stroke="none" fill-opacity="0.7"/><rect x="12.7" y="12.6" width="0.6" height="0.6" rx="0.1" fill="currentColor" stroke="none" fill-opacity="0.7"/><rect x="14" y="12.6" width="0.6" height="0.6" rx="0.1" fill="currentColor" stroke="none" fill-opacity="0.7"/><rect x="15.3" y="12.6" width="0.6" height="0.6" rx="0.1" fill="currentColor" stroke="none" fill-opacity="0.7"/><rect x="16.6" y="12.6" width="0.6" height="0.6" rx="0.1" fill="currentColor" stroke="none" fill-opacity="0.7"/><rect x="17.9" y="12.6" width="0.6" height="0.6" rx="0.1" fill="currentColor" stroke="none" fill-opacity="0.7"/><rect x="11.4" y="13.9" width="0.6" height="0.6" rx="0.1" fill="currentColor" stroke="none" fill-opacity="0.7"/><rect x="12.7" y="13.9" width="0.6" height="0.6" rx="0.1" fill="currentColor" stroke="none" fill-opacity="0.7"/><rect x="14" y="13.9" width="0.6" height="0.6" rx="0.1" fill="currentColor" stroke="none" fill-opacity="0.7"/><rect x="15.3" y="13.9" width="0.6" height="0.6" rx="0.1" fill="currentColor" stroke="none" fill-opacity="0.7"/><rect x="16.6" y="13.9" width="0.6" height="0.6" rx="0.1" fill="currentColor" stroke="none" fill-opacity="0.7"/><rect x="17.9" y="13.9" width="0.6" height="0.6" rx="0.1" fill="currentColor" stroke="none" fill-opacity="0.7"/><circle cx="17.6" cy="16.8" r="1.1" stroke-width="0.7"/></svg>
